<?xml version="1.0" encoding="utf-8"?>
<!-- Generator: Adobe Illustrator 16.2.1, SVG Export Plug-In . SVG Version: 6.00 Build 0)  -->
<!DOCTYPE svg PUBLIC "-//W3C//DTD SVG 1.1//EN" "http://www.w3.org/Graphics/SVG/1.1/DTD/svg11.dtd">
<svg version="1.1" id="Layer_1" xmlns="http://www.w3.org/2000/svg" xmlns:xlink="http://www.w3.org/1999/xlink" x="0px" y="0px"
	 width="100px" height="100px" viewBox="0 0 100 100" enable-background="new 0 0 100 100" xml:space="preserve">
<g>
	<path fill="#202328" d="M51.438,0C23.834-0.794,0.814,20.939,0.021,48.542C0.007,49.028,0,49.514,0,50c0,27.614,22.386,50,50,50
		s50-22.386,50-50C100.012,22.938,78.488,0.778,51.438,0z M62.1,68.129c0,1.099-0.659,1.759-1.76,1.759H33.955
		c-1.099,0-1.758-0.66-1.758-1.759V35.588c0-1.1,0.659-1.76,1.758-1.76L60.34,33.83c1.101,0,1.76,0.659,1.76,1.759V68.129z
		 M70.016,62.412c0,1.101-0.66,1.76-1.76,1.76h-3.519V32.969c0-1.1-0.658-1.759-1.759-1.759l-22.866,0v-1.337
		c0-1.099,0.659-1.76,1.758-1.76l26.384,0.001c1.101,0,1.76,0.66,1.761,1.759V62.412z"/>
	<rect x="39.233" y="42.667" fill="#202328" width="15.831" height="2.639"/>
	<rect x="39.233" y="58.498" fill="#202328" width="15.831" height="2.639"/>
	<rect x="39.233" y="50.584" fill="#202328" width="15.831" height="2.637"/>
</g>
</svg>
