<?xml version="1.0" encoding="utf-8"?>
<!-- Generator: Adobe Illustrator 16.2.1, SVG Export Plug-In . SVG Version: 6.00 Build 0)  -->
<!DOCTYPE svg PUBLIC "-//W3C//DTD SVG 1.1//EN" "http://www.w3.org/Graphics/SVG/1.1/DTD/svg11.dtd">
<svg version="1.1" id="Layer_1" xmlns="http://www.w3.org/2000/svg" xmlns:xlink="http://www.w3.org/1999/xlink" x="0px" y="0px"
	 width="100px" height="100px" viewBox="0 0 100 100" enable-background="new 0 0 100 100" xml:space="preserve">
<path fill="#202328" d="M51.438,0C23.834-0.794,0.814,20.939,0.021,48.542C0.007,49.028,0,49.514,0,50c0,27.614,22.386,50,50,50
	s50-22.386,50-50C100.012,22.938,78.488,0.778,51.438,0z M26,74.651l4.678-15.166l11.08,10.756L26,74.651z M44.62,67.289
	l-11.08-10.755l21.34-21.978L65.96,45.308L44.62,67.289z M68.829,42.357L57.75,31.602l7.171-7.384L76,34.969L68.829,42.357z"/>
</svg>
