<?xml version="1.0" encoding="utf-8"?>
<!-- Generator: Adobe Illustrator 16.0.0, SVG Export Plug-In . SVG Version: 6.00 Build 0)  -->
<!DOCTYPE svg PUBLIC "-//W3C//DTD SVG 1.1//EN" "http://www.w3.org/Graphics/SVG/1.1/DTD/svg11.dtd">
<svg version="1.1" id="Layer_1" xmlns="http://www.w3.org/2000/svg" xmlns:xlink="http://www.w3.org/1999/xlink" x="0px" y="0px"
	 width="269px" height="51px" viewBox="0 0 269 51" enable-background="new 0 0 269 51" xml:space="preserve">
<g>
	<path fill="#FFFFFF" d="M20.75,15.275v5.937h-6.498v15.996c0,1.5,0.249,2.5,0.749,3s1.5,0.75,3,0.75c0.5,0,0.978-0.021,1.437-0.062
		c0.458-0.042,0.895-0.104,1.312-0.188v6.873c-0.749,0.125-1.583,0.209-2.5,0.25s-1.812,0.062-2.686,0.062
		c-1.375,0-2.677-0.094-3.905-0.281c-1.229-0.188-2.312-0.552-3.249-1.095c-0.937-0.54-1.678-1.312-2.218-2.312
		c-0.542-1-0.812-2.312-0.812-3.937V21.212H0.006v-5.937H5.38V5.591h8.873v9.684H20.75L20.75,15.275z"/>
	<path fill="#FFFFFF" d="M26.186,20.024c0.916-1.374,2.083-2.478,3.5-3.312c1.415-0.833,3.009-1.426,4.78-1.781
		c1.77-0.354,3.55-0.531,5.341-0.531c1.625,0,3.27,0.115,4.937,0.344c1.665,0.229,3.187,0.678,4.561,1.342
		c1.375,0.667,2.499,1.594,3.375,2.782c0.875,1.188,1.312,2.76,1.312,4.717v16.809c0,1.458,0.083,2.853,0.249,4.187
		c0.166,1.332,0.459,2.332,0.875,2.998h-8.997c-0.168-0.5-0.303-1.009-0.407-1.529c-0.104-0.521-0.178-1.051-0.219-1.594
		c-1.417,1.459-3.083,2.479-4.999,3.062c-1.917,0.582-3.875,0.875-5.873,0.875c-1.542,0-2.98-0.187-4.312-0.562
		c-1.333-0.375-2.5-0.959-3.499-1.75c-1-0.791-1.781-1.791-2.344-3c-0.562-1.207-0.843-2.644-0.843-4.311
		c0-1.833,0.322-3.344,0.969-4.53c0.645-1.188,1.477-2.135,2.499-2.843c1.02-0.708,2.187-1.239,3.499-1.594
		c1.313-0.354,2.634-0.635,3.968-0.844s2.646-0.375,3.937-0.5c1.29-0.125,2.437-0.312,3.436-0.562c1-0.25,1.791-0.614,2.375-1.093
		c0.583-0.479,0.853-1.177,0.812-2.095c0-0.958-0.156-1.716-0.468-2.28c-0.313-0.562-0.73-0.999-1.251-1.312
		c-0.521-0.312-1.124-0.52-1.812-0.624c-0.688-0.104-1.428-0.156-2.218-0.156c-1.75,0-3.124,0.375-4.124,1.124
		c-0.999,0.75-1.584,2-1.749,3.75h-8.874C24.749,23.127,25.269,21.398,26.186,20.024z M43.712,32.552
		c-0.562,0.188-1.167,0.344-1.812,0.47c-0.647,0.125-1.323,0.229-2.031,0.312c-0.708,0.084-1.416,0.188-2.124,0.313
		c-0.667,0.125-1.322,0.292-1.968,0.5c-0.646,0.209-1.209,0.491-1.688,0.844c-0.479,0.354-0.866,0.802-1.156,1.345
		c-0.292,0.541-0.438,1.229-0.438,2.062c0,0.792,0.146,1.458,0.438,2c0.29,0.542,0.687,0.967,1.186,1.28
		c0.501,0.312,1.083,0.531,1.75,0.656c0.665,0.125,1.353,0.188,2.062,0.188c1.749,0,3.102-0.291,4.062-0.875
		c0.957-0.583,1.666-1.282,2.124-2.094c0.458-0.812,0.739-1.635,0.843-2.469c0.104-0.834,0.156-1.5,0.156-2v-3.312
		C44.744,32.105,44.276,32.364,43.712,32.552z"/>
	<path fill="#FFFFFF" d="M57.49,21.211v-5.937h5.311v-2.5c0-2.874,0.895-5.227,2.686-7.06c1.792-1.832,4.499-2.75,8.124-2.75
		c0.791,0,1.583,0.032,2.375,0.094c0.791,0.062,1.562,0.116,2.312,0.156v6.623c-1.042-0.125-2.125-0.187-3.25-0.187
		c-1.209,0-2.073,0.281-2.593,0.843c-0.521,0.563-0.78,1.51-0.78,2.844v1.936h6.122v5.937h-6.122v26.369h-8.874V21.21L57.49,21.211
		L57.49,21.211z"/>
	<path fill="#FFFFFF" d="M91.167,39.831c1.333,1.293,3.25,1.938,5.749,1.938c1.792,0,3.332-0.447,4.625-1.345
		c1.29-0.895,2.082-1.842,2.373-2.842h7.811c-1.25,3.875-3.165,6.646-5.749,8.311c-2.583,1.667-5.707,2.499-9.372,2.499
		c-2.542,0-4.833-0.407-6.874-1.218c-2.042-0.812-3.771-1.969-5.187-3.469s-2.509-3.291-3.28-5.373
		c-0.771-2.084-1.157-4.375-1.157-6.875c0-2.416,0.396-4.666,1.188-6.749c0.791-2.083,1.916-3.884,3.375-5.403
		c1.457-1.52,3.196-2.718,5.217-3.594c2.02-0.875,4.258-1.312,6.717-1.312c2.749,0,5.144,0.531,7.185,1.594
		c2.041,1.062,3.718,2.489,5.03,4.28c1.312,1.792,2.259,3.833,2.843,6.123c0.583,2.292,0.791,4.687,0.625,7.187H88.979
		C89.105,36.458,89.834,38.542,91.167,39.831z M101.196,22.836c-1.062-1.166-2.677-1.749-4.842-1.749
		c-1.417,0-2.594,0.239-3.53,0.718c-0.937,0.479-1.687,1.073-2.25,1.781c-0.562,0.708-0.959,1.458-1.188,2.25
		c-0.229,0.792-0.365,1.499-0.406,2.124h14.434C102.997,25.711,102.259,24.004,101.196,22.836z"/>
	<path fill="#FFFFFF" d="M149.215,2.965V6.59h-15.559v40.989h-4.249V6.59H113.91V2.965H149.215z"/>
	<path fill="#FFFFFF" d="M157.213,2.965v27.62c0,2.582,0.291,4.779,0.873,6.59c0.584,1.812,1.439,3.291,2.564,4.438
		c1.123,1.146,2.498,1.979,4.123,2.499s3.457,0.781,5.498,0.781c2.082,0,3.938-0.259,5.562-0.781
		c1.623-0.521,2.998-1.353,4.123-2.499c1.123-1.146,1.98-2.624,2.562-4.438c0.582-1.812,0.873-4.008,0.873-6.59V2.965h4.25v28.556
		c0,2.291-0.322,4.467-0.969,6.528c-0.646,2.062-1.668,3.865-3.062,5.406c-1.396,1.541-3.188,2.76-5.373,3.654
		c-2.188,0.896-4.842,1.344-7.967,1.344c-3.082,0-5.717-0.447-7.904-1.344c-2.188-0.895-3.979-2.113-5.373-3.654
		c-1.396-1.541-2.418-3.344-3.062-5.406c-0.646-2.062-0.969-4.237-0.969-6.528V2.965H157.213z"/>
	<path fill="#FFFFFF" d="M215.072,2.965c1.873,0,3.676,0.178,5.404,0.532s3.248,0.958,4.562,1.812
		c1.311,0.854,2.363,1.978,3.154,3.374s1.188,3.135,1.188,5.217c0,1.167-0.188,2.302-0.562,3.406
		c-0.373,1.104-0.906,2.104-1.594,2.999s-1.5,1.656-2.438,2.28c-0.938,0.625-1.988,1.063-3.154,1.312v0.126
		c2.873,0.375,5.164,1.552,6.873,3.53c1.707,1.979,2.562,4.426,2.562,7.341c0,0.709-0.062,1.51-0.189,2.405
		c-0.123,0.896-0.375,1.812-0.75,2.75c-0.373,0.937-0.916,1.865-1.623,2.779c-0.709,0.918-1.656,1.719-2.844,2.406
		s-2.646,1.25-4.375,1.688s-3.801,0.656-6.215,0.656h-18.871V2.964L215.072,2.965L215.072,2.965z M215.072,22.523
		c1.707,0,3.188-0.197,4.438-0.594c1.248-0.396,2.289-0.938,3.123-1.625c0.832-0.688,1.457-1.489,1.875-2.405
		c0.416-0.917,0.623-1.896,0.623-2.937c0-5.582-3.354-8.374-10.059-8.374h-14.621v15.934L215.072,22.523L215.072,22.523z
		 M215.072,43.956c1.582,0,3.082-0.136,4.498-0.406c1.416-0.271,2.666-0.76,3.75-1.469c1.082-0.707,1.938-1.656,2.561-2.844
		c0.627-1.188,0.939-2.676,0.939-4.467c0-2.875-1.012-5.03-3.029-6.467c-2.021-1.438-4.928-2.156-8.717-2.156h-14.623v17.809
		H215.072z"/>
	<path fill="#FFFFFF" d="M268.682,2.965V6.59h-26.555v16.122h24.869v3.623h-24.869v17.621h26.867v3.625h-31.115V2.966L268.682,2.965
		L268.682,2.965z"/>
</g>
</svg>
