<?xml version="1.0" encoding="utf-8"?>
<!-- Generator: Adobe Illustrator 16.0.0, SVG Export Plug-In . SVG Version: 6.00 Build 0)  -->
<!DOCTYPE svg PUBLIC "-//W3C//DTD SVG 1.1//EN" "http://www.w3.org/Graphics/SVG/1.1/DTD/svg11.dtd">
<svg version="1.1" id="Layer_1" xmlns="http://www.w3.org/2000/svg" xmlns:xlink="http://www.w3.org/1999/xlink" x="0px" y="0px"
	 width="64px" height="64px" viewBox="0 0 64 64" enable-background="new 0 0 64 64" xml:space="preserve">
<g>
	<path fill="#FFFFFF" d="M44.697,37.962l17.955,15.562c1.629,1.413,1.807,3.902,0.395,5.533l-0.641,0.739
		c-1.414,1.631-3.904,1.809-5.533,0.396l-17.82-15.446"/>
</g>
<path fill="#FFFFFF" d="M1.104,26.458c0-12.905,10.461-23.365,23.367-23.365c12.904,0,23.365,10.46,23.365,23.365
	c0,12.906-10.461,23.367-23.365,23.367C11.564,49.824,1.104,39.363,1.104,26.458z M24.767,43.533c9.43,0,17.075-7.645,17.075-17.076
	c0-9.43-7.645-17.075-17.075-17.075c-9.432,0-17.076,7.645-17.076,17.075C7.692,35.889,15.336,43.533,24.767,43.533z"/>
</svg>
