<?xml version="1.0" encoding="utf-8"?>
<!-- Generator: Adobe Illustrator 16.2.1, SVG Export Plug-In . SVG Version: 6.00 Build 0)  -->
<!DOCTYPE svg PUBLIC "-//W3C//DTD SVG 1.1//EN" "http://www.w3.org/Graphics/SVG/1.1/DTD/svg11.dtd">
<svg version="1.1" id="Layer_1" xmlns="http://www.w3.org/2000/svg" xmlns:xlink="http://www.w3.org/1999/xlink" x="0px" y="0px"
	 width="32px" height="32px" viewBox="0 0 32 32" enable-background="new 0 0 32 32" xml:space="preserve">
<path fill="#EA4C89" d="M32,30c0,1.104-0.896,2-2,2H2c-1.104,0-2-0.896-2-2V2c0-1.104,0.896-2,2-2h28c1.104,0,2,0.896,2,2V30z"/>
<path fill="#FFFFFF" d="M17.608,14.413v-0.034c-0.008,0.012-0.016,0.022-0.021,0.034H17.608z"/>
<path fill-rule="evenodd" clip-rule="evenodd" fill="#FFFFFF" d="M23.284,14.856c-0.098-0.478-0.243-0.948-0.434-1.397
	c-0.186-0.441-0.417-0.866-0.685-1.263c-0.268-0.394-0.572-0.764-0.908-1.101s-0.706-0.642-1.1-0.907
	c-0.397-0.269-0.823-0.5-1.264-0.686c-0.449-0.189-0.919-0.336-1.397-0.434c-0.489-0.1-0.993-0.151-1.497-0.151
	c-0.504,0-1.008,0.052-1.498,0.151c-0.478,0.097-0.948,0.244-1.397,0.434c-0.441,0.187-0.866,0.417-1.263,0.686
	c-0.394,0.266-0.764,0.571-1.101,0.907c-0.336,0.336-0.641,0.707-0.907,1.101c-0.269,0.397-0.5,0.821-0.686,1.263
	c-0.19,0.449-0.336,0.92-0.434,1.397c-0.1,0.489-0.151,0.993-0.151,1.496c0,0.505,0.051,1.009,0.151,1.498
	c0.098,0.479,0.244,0.95,0.434,1.398c0.186,0.439,0.417,0.866,0.686,1.263c0.266,0.394,0.571,0.765,0.907,1.1
	c0.337,0.336,0.707,0.642,1.101,0.909c0.397,0.267,0.822,0.498,1.263,0.686c0.449,0.189,0.919,0.335,1.397,0.433
	c0.49,0.101,0.994,0.15,1.498,0.15c0.504,0,1.007-0.05,1.497-0.15c0.479-0.098,0.948-0.243,1.397-0.433
	c0.44-0.188,0.866-0.419,1.264-0.686c0.394-0.268,0.764-0.573,1.1-0.909c0.336-0.335,0.641-0.706,0.908-1.1
	c0.268-0.396,0.499-0.823,0.685-1.263c0.19-0.448,0.336-0.919,0.434-1.398c0.101-0.488,0.151-0.992,0.151-1.498
	C23.436,15.849,23.385,15.345,23.284,14.856z M22.348,16.29c-0.092-0.02-2.241-0.482-4.422-0.208
	c-0.045-0.108-0.09-0.218-0.137-0.327c-0.133-0.311-0.275-0.619-0.423-0.921c2.507-1.023,3.526-2.496,3.538-2.513
	C21.795,13.401,22.333,14.783,22.348,16.29z M20.194,11.587c-0.016,0.025-0.92,1.401-3.317,2.299
	c-1.086-1.994-2.278-3.579-2.374-3.705c0.48-0.117,0.981-0.179,1.497-0.179C17.607,10.003,19.075,10.602,20.194,11.587z
	 M14.479,10.188c0,0-0.001,0.001-0.001,0.001s-0.007,0.001-0.019,0.004C14.465,10.191,14.473,10.189,14.479,10.188z M13.291,10.61
	c0.084,0.113,1.259,1.706,2.358,3.659c-3.049,0.81-5.695,0.778-5.863,0.775C10.199,13.077,11.52,11.447,13.291,10.61z M9.65,16.352
	c0-0.067,0.003-0.133,0.005-0.2c0.112,0.002,3.25,0.074,6.519-0.905c0.182,0.356,0.356,0.718,0.515,1.08
	c-0.084,0.023-0.167,0.048-0.25,0.075c-3.427,1.108-5.165,4.192-5.165,4.192s0.001,0.002,0.002,0.002
	C10.266,19.471,9.65,17.983,9.65,16.352z M16,22.702c-1.537,0-2.947-0.546-4.045-1.454c0.084,0.066,0.142,0.11,0.142,0.11
	s1.217-2.654,4.983-3.966c0.015-0.006,0.028-0.01,0.043-0.014c0.893,2.321,1.262,4.268,1.356,4.821
	C17.718,22.523,16.879,22.702,16,22.702z M19.549,21.619c-0.065-0.384-0.403-2.246-1.236-4.535c2.05-0.328,3.826,0.234,3.957,0.277
	C21.987,19.131,20.975,20.656,19.549,21.619z"/>
</svg>
