<?xml version="1.0" encoding="utf-8"?>
<!-- Generator: Adobe Illustrator 16.2.1, SVG Export Plug-In . SVG Version: 6.00 Build 0)  -->
<!DOCTYPE svg PUBLIC "-//W3C//DTD SVG 1.1//EN" "http://www.w3.org/Graphics/SVG/1.1/DTD/svg11.dtd">
<svg version="1.1" id="Layer_1" xmlns="http://www.w3.org/2000/svg" xmlns:xlink="http://www.w3.org/1999/xlink" x="0px" y="0px"
	 width="32px" height="32px" viewBox="0 0 32 32" enable-background="new 0 0 32 32" xml:space="preserve">
<path fill="#0E76A8" d="M32,30c0,1.104-0.896,2-2,2H2c-1.104,0-2-0.896-2-2V2c0-1.104,0.896-2,2-2h28c1.104,0,2,0.896,2,2V30z"/>
<path fill="#FFFFFF" d="M17.608,14.413v-0.034c-0.008,0.012-0.016,0.022-0.021,0.034H17.608z"/>
<path fill="#FFFFFF" d="M12.643,22.633H9.447v-9.614h3.196V22.633z M11.046,11.705h-0.021c-1.073,0-1.766-0.739-1.766-1.661
	c0-0.943,0.715-1.661,1.808-1.661c1.093,0,1.766,0.718,1.788,1.661C12.854,10.966,12.16,11.705,11.046,11.705z M24.167,22.633
	h-3.195v-5.145c0-1.292-0.462-2.174-1.619-2.174c-0.883,0-1.408,0.595-1.64,1.169c-0.085,0.206-0.104,0.492-0.104,0.779v5.37h-3.196
	c0,0,0.042-8.713,0-9.614h3.196v1.36c0.424-0.655,1.184-1.587,2.88-1.587c2.103,0,3.679,1.375,3.679,4.329V22.633z"/>
</svg>
