<?xml version="1.0" encoding="utf-8"?>
<!-- Generator: Adobe Illustrator 16.2.1, SVG Export Plug-In . SVG Version: 6.00 Build 0)  -->
<!DOCTYPE svg PUBLIC "-//W3C//DTD SVG 1.1//EN" "http://www.w3.org/Graphics/SVG/1.1/DTD/svg11.dtd">
<svg version="1.1" id="Layer_1" xmlns="http://www.w3.org/2000/svg" xmlns:xlink="http://www.w3.org/1999/xlink" x="0px" y="0px"
	 width="32px" height="32px" viewBox="0 0 32 32" enable-background="new 0 0 32 32" xml:space="preserve">
<path fill="#3F729B" d="M32,30c0,1.104-0.896,2-2,2H2c-1.104,0-2-0.896-2-2V2c0-1.104,0.896-2,2-2h28c1.104,0,2,0.896,2,2V30z"/>
<path fill="#FFFFFF" d="M17.608,14.413v-0.034c-0.008,0.012-0.016,0.022-0.021,0.034H17.608z"/>
<path fill="#FFFFFF" d="M8.546,16.354c0,2.916,1.696,5.439,4.156,6.635l-3.517-9.636C8.775,14.27,8.546,15.284,8.546,16.354z
	 M20.896,15.98c0-0.911-0.328-1.542-0.608-2.033c-0.374-0.607-0.724-1.121-0.724-1.729c0-0.678,0.513-1.308,1.238-1.308
	c0.032,0,0.063,0.004,0.095,0.006c-1.312-1.202-3.059-1.937-4.978-1.937c-2.577,0-4.843,1.323-6.16,3.324
	c0.173,0.005,0.335,0.009,0.474,0.009c0.771,0,1.965-0.095,1.965-0.095c0.396-0.022,0.444,0.561,0.046,0.608
	c0,0-0.398,0.046-0.844,0.07l2.686,7.986l1.613-4.839l-1.149-3.147c-0.397-0.024-0.773-0.07-0.773-0.07
	c-0.397-0.024-0.351-0.63,0.047-0.608c0,0,1.217,0.095,1.941,0.095c0.771,0,1.966-0.095,1.966-0.095
	c0.396-0.022,0.443,0.561,0.046,0.608c0,0-0.399,0.046-0.844,0.07L19.6,20.82l0.736-2.455C20.708,17.406,20.896,16.613,20.896,15.98
	z M16.049,16.999l-2.212,6.429c0.66,0.193,1.358,0.299,2.083,0.299c0.858,0,1.681-0.148,2.448-0.42
	c-0.02-0.031-0.038-0.064-0.053-0.1L16.049,16.999z M22.389,12.815c0.032,0.235,0.05,0.487,0.05,0.759
	c0,0.748-0.14,1.588-0.562,2.641l-2.251,6.51c2.191-1.277,3.665-3.652,3.665-6.371C23.291,15.071,22.964,13.866,22.389,12.815z"/>
</svg>
