<?xml version="1.0" encoding="UTF-8" standalone="no"?>
<!-- Generator: Adobe Illustrator 16.2.1, SVG Export Plug-In . SVG Version: 6.00 Build 0)  -->

<svg
   xmlns:dc="http://purl.org/dc/elements/1.1/"
   xmlns:cc="http://creativecommons.org/ns#"
   xmlns:rdf="http://www.w3.org/1999/02/22-rdf-syntax-ns#"
   xmlns:svg="http://www.w3.org/2000/svg"
   xmlns="http://www.w3.org/2000/svg"
   xmlns:sodipodi="http://sodipodi.sourceforge.net/DTD/sodipodi-0.dtd"
   xmlns:inkscape="http://www.inkscape.org/namespaces/inkscape"
   version="1.1"
   id="Layer_1"
   x="0px"
   y="0px"
   width="53"
   height="53"
   viewBox="0 0 53 53"
   enable-background="new 0 0 50 50"
   xml:space="preserve"
   inkscape:version="0.48.2 r9819"
   sodipodi:docname="return.svg"><metadata
   id="metadata16"><rdf:RDF><cc:Work
       rdf:about=""><dc:format>image/svg+xml</dc:format><dc:type
         rdf:resource="http://purl.org/dc/dcmitype/StillImage" /></cc:Work></rdf:RDF></metadata><defs
   id="defs14"><filter
     id="filter2993"
     inkscape:label="Drop shadow"
     width="1.5"
     height="1.5"
     x="-0.25"
     y="-0.25"
     color-interpolation-filters="sRGB"><feGaussianBlur
       id="feGaussianBlur2995"
       in="SourceAlpha"
       stdDeviation="1"
       result="blur" /><feColorMatrix
       id="feColorMatrix2997"
       result="bluralpha"
       type="matrix"
       values="1 0 0 0 0 0 1 0 0 0 0 0 1 0 0 0 0 0 0.5 0 " /><feOffset
       id="feOffset2999"
       in="bluralpha"
       dx="1.4"
       dy="1.4"
       result="offsetBlur" /><feMerge
       id="feMerge3001"><feMergeNode
         id="feMergeNode3003"
         in="offsetBlur" /><feMergeNode
         id="feMergeNode3005"
         in="SourceGraphic" /></feMerge></filter><filter
     id="filter3007"
     inkscape:label="Drop shadow"
     width="1.5"
     height="1.5"
     x="-0.25"
     y="-0.25"
     color-interpolation-filters="sRGB"><feGaussianBlur
       id="feGaussianBlur3009"
       in="SourceAlpha"
       stdDeviation="1"
       result="blur" /><feColorMatrix
       id="feColorMatrix3011"
       result="bluralpha"
       type="matrix"
       values="1 0 0 0 0 0 1 0 0 0 0 0 1 0 0 0 0 0 0.5 0 " /><feOffset
       id="feOffset3013"
       in="bluralpha"
       dx="1.4"
       dy="1.4"
       result="offsetBlur" /><feMerge
       id="feMerge3015"><feMergeNode
         id="feMergeNode3017"
         in="offsetBlur" /><feMergeNode
         id="feMergeNode3019"
         in="SourceGraphic" /></feMerge></filter></defs><sodipodi:namedview
   pagecolor="#ffffff"
   bordercolor="#666666"
   borderopacity="1"
   objecttolerance="10"
   gridtolerance="10"
   guidetolerance="10"
   inkscape:pageopacity="0"
   inkscape:pageshadow="2"
   inkscape:window-width="640"
   inkscape:window-height="480"
   id="namedview12"
   showgrid="false"
   inkscape:zoom="4.72"
   inkscape:cx="25"
   inkscape:cy="28.595181"
   inkscape:window-x="0"
   inkscape:window-y="0"
   inkscape:window-maximized="0"
   inkscape:current-layer="Layer_1" />
<circle
   stroke-miterlimit="10"
   cx="25.296"
   cy="24.552999"
   r="22.212"
   id="circle3"
   style="fill:none;stroke:#ffffff;stroke-width:4;stroke-miterlimit:10;filter:url(#filter3007)"
   sodipodi:cx="25.296"
   sodipodi:cy="24.552999"
   sodipodi:rx="22.212"
   sodipodi:ry="22.212"
   transform="translate(0.21186441,1.3050847)" />
<g
   id="Your_Icon"
   style="filter:url(#filter2993)"
   transform="translate(0.21186441,1.3050847)">
	<g
   id="g6">
		<path
   d="m 33.93,26.678 c -0.673,0 -1.219,0.546 -1.219,1.219 v 1.635 c 0,1.605 -1.106,1.942 -2.035,1.942 h -9.419 c -1.318,0 -2.105,-0.833 -2.105,-2.227 v -7.22 c 0,-2.083 1.371,-2.521 2.521,-2.521 h 2.107 c 0.673,0 1.22,-0.546 1.22,-1.219 0,-0.673 -0.546,-1.219 -1.22,-1.219 h -2.107 c -3.012,0 -4.959,1.947 -4.959,4.959 v 7.22 c 0,2.746 1.869,4.664 4.544,4.664 h 9.418 c 2.676,0 4.475,-1.76 4.475,-4.38 V 27.896 C 35.149,27.224 34.603,26.678 33.93,26.678 z"
   id="path8"
   inkscape:connector-curvature="0"
   style="fill:#ffffff" />
		<path
   d="m 33.93,17.068 h -5.54 c -0.673,0 -1.219,0.546 -1.219,1.219 0,0.673 0.546,1.219 1.219,1.219 h 2.529 c -2.625,2.626 -2.965,2.966 -6.846,6.776 -0.481,0.471 -0.488,1.242 -0.016,1.723 0.239,0.243 0.554,0.366 0.869,0.366 0.309,0 0.618,-0.117 0.854,-0.35 3.892,-3.819 4.23,-4.159 6.865,-6.795 l 0.065,-0.065 v 2.251 c 0,0.673 0.547,1.219 1.22,1.219 0.672,0 1.219,-0.545 1.219,-1.219 v -5.125 c 0,-0.673 -0.546,-1.219 -1.219,-1.219 z"
   id="path10"
   inkscape:connector-curvature="0"
   style="fill:#ffffff" />
	</g>
</g>
</svg>