<?xml version="1.0" encoding="utf-8"?>
<!-- Generator: Adobe Illustrator 16.2.1, SVG Export Plug-In . SVG Version: 6.00 Build 0)  -->
<!DOCTYPE svg PUBLIC "-//W3C//DTD SVG 1.1//EN" "http://www.w3.org/Graphics/SVG/1.1/DTD/svg11.dtd">
<svg version="1.1" id="Layer_1" xmlns="http://www.w3.org/2000/svg" xmlns:xlink="http://www.w3.org/1999/xlink" x="0px" y="0px"
	 width="32px" height="32px" viewBox="0 0 32 32" enable-background="new 0 0 32 32" xml:space="preserve">
<path fill="#B7B7B7" d="M20.033,16.75c0,2.229-1.812,4.033-4.033,4.033c-2.237,0-4.042-1.804-4.042-4.033
	c0-2.23,1.804-4.034,4.042-4.034C18.221,12.716,20.033,14.52,20.033,16.75z"/>
<path fill="#B7B7B7" d="M8.417,16.75c0,2.229-1.804,4.033-4.034,4.033S0.35,18.979,0.35,16.75c0-2.23,1.804-4.034,4.034-4.034
	S8.417,14.52,8.417,16.75z"/>
<path fill="#B7B7B7" d="M31.65,16.75c0,2.229-1.804,4.033-4.033,4.033c-2.23,0-4.034-1.804-4.034-4.033
	c0-2.23,1.804-4.034,4.034-4.034C29.847,12.716,31.65,14.52,31.65,16.75z"/>
</svg>
