<?xml version="1.0" encoding="utf-8"?>
<!-- Generator: Adobe Illustrator 16.2.1, SVG Export Plug-In . SVG Version: 6.00 Build 0)  -->
<!DOCTYPE svg PUBLIC "-//W3C//DTD SVG 1.1//EN" "http://www.w3.org/Graphics/SVG/1.1/DTD/svg11.dtd">
<svg version="1.1" id="Layer_1" xmlns="http://www.w3.org/2000/svg" xmlns:xlink="http://www.w3.org/1999/xlink" x="0px" y="0px"
	 width="32px" height="32px" viewBox="0 0 32 32" enable-background="new 0 0 32 32" xml:space="preserve">
<path fill="#3B5998" d="M32,30c0,1.104-0.896,2-2,2H2c-1.104,0-2-0.896-2-2V2c0-1.104,0.896-2,2-2h28c1.104,0,2,0.896,2,2V30z"/>
<path fill="#FFFFFF" d="M20.732,12.922h-3.047v-1.999c0-0.75,0.497-0.926,0.847-0.926s2.15,0,2.15,0V6.699l-2.961-0.012
	c-3.288,0-4.036,2.461-4.036,4.036v2.199h-1.901v3.4h1.901c0,4.364,0,9.621,0,9.621h4c0,0,0-5.31,0-9.621h2.697L20.732,12.922z"/>
</svg>
