<?xml version="1.0" encoding="utf-8"?>
<!-- Generator: Adobe Illustrator 16.2.1, SVG Export Plug-In . SVG Version: 6.00 Build 0)  -->
<!DOCTYPE svg PUBLIC "-//W3C//DTD SVG 1.1//EN" "http://www.w3.org/Graphics/SVG/1.1/DTD/svg11.dtd">
<svg version="1.1" id="Layer_1" xmlns="http://www.w3.org/2000/svg" xmlns:xlink="http://www.w3.org/1999/xlink" x="0px" y="0px"
	 width="32px" height="32px" viewBox="0 0 32 32" enable-background="new 0 0 32 32" xml:space="preserve">
<path fill="#00A0D1" d="M32,30c0,1.104-0.896,2-2,2H2c-1.104,0-2-0.896-2-2V2c0-1.104,0.896-2,2-2h28c1.104,0,2,0.896,2,2V30z"/>
<path fill="#FFFFFF" d="M21.786,11.498c-0.012-0.006-0.023-0.02-0.035-0.031c-0.723-0.644-1.57-0.95-2.544-0.914l-0.031-0.065
	c0.007-0.006,0.013-0.006,0.019-0.006c0.884-0.193,1.407-0.392,1.563-0.608c0.055-0.174-0.012-0.271-0.205-0.294
	c-0.444,0.054-0.854,0.144-1.221,0.283c0.464-0.283,0.644-0.481,0.542-0.583c-0.457,0.012-0.95,0.235-1.469,0.674
	c0.193-0.312,0.266-0.481,0.218-0.511c-0.247,0.162-0.464,0.337-0.649,0.523c-0.392,0.415-0.704,0.8-0.945,1.149l-0.012,0.03
	c-0.619,0.956-1.053,1.918-1.312,2.899l-0.096,0.073l-0.018,0.017c-0.374-0.445-0.818-0.817-1.353-1.12
	c-0.632-0.39-1.372-0.764-2.227-1.124c-0.932-0.457-1.876-0.836-2.833-1.13c-0.006,1.017,0.518,1.829,1.558,2.418v0.018
	c-0.367-0.007-0.722,0.048-1.065,0.151c0.066,0.944,0.77,1.594,2.105,1.954l-0.006,0.018c-0.523-0.029-0.956,0.145-1.293,0.505
	c0.439,0.818,1.216,1.209,2.341,1.179c-0.223,0.108-0.397,0.228-0.512,0.361c-0.205,0.204-0.271,0.445-0.205,0.722
	c0.241,0.415,0.674,0.606,1.312,0.578l0,0l0.036,0.041c-0.006,0.006-0.012,0.013-0.018,0.018c-1.101,1.084-2.43,1.571-3.989,1.469
	l-0.023,0.013c-0.95-0.008-1.967-0.44-3.068-1.306c1.106,1.515,2.575,2.609,4.392,3.297c2.081,0.655,4.163,0.702,6.237,0.144h0.036
	c2.016-0.554,3.724-1.691,5.131-3.411c0.649-0.902,1.059-1.762,1.222-2.587c1.052,0.036,1.81-0.252,2.279-0.865l-0.012-0.019
	c-0.349,0.12-1.034,0.085-2.052-0.113v-0.109c0-0.005,0-0.005,0.007,0c1.112-0.12,1.769-0.462,1.979-1.029
	c-0.775,0.289-1.54,0.294-2.298,0.024C23.134,13.229,22.642,12.321,21.786,11.498z"/>
</svg>
