<?xml version="1.0" encoding="utf-8"?>
<!-- Generator: Adobe Illustrator 17.0.0, SVG Export Plug-In . SVG Version: 6.00 Build 0)  -->
<!DOCTYPE svg PUBLIC "-//W3C//DTD SVG 1.1//EN" "http://www.w3.org/Graphics/SVG/1.1/DTD/svg11.dtd">
<svg version="1.1" id="Layer_1" xmlns="http://www.w3.org/2000/svg" xmlns:xlink="http://www.w3.org/1999/xlink" x="0px" y="0px"
	 width="383.556px" height="82.5px" viewBox="0 0 383.556 82.5" enable-background="new 0 0 383.556 82.5" xml:space="preserve">
<path fill="#FFFFFF" d="M33.769,54.767c-0.677,0.33-1.354,0.661-2.832,1.382c8.582,2.327,11.457-7.741,18.834-6.048
	c0.013-0.609,0.027-1.219,0.04-1.828c-3.647-1.567-7.294-3.133-10.942-4.7c-0.219,0.373-0.437,0.745-0.656,1.118
	c0.834,0.981,1.669,1.962,2.503,2.944c-0.125,0.409-0.251,0.818-0.376,1.227c-1.241-0.35-2.999-0.293-3.644-1.112
	c-6.148-7.805-14.573-11.901-23.634-15.098c-2.524-0.89-4.996-1.979-7.386-3.186c-3.709-1.873-5.621-5.005-5.652-9.17
	C-0.022,13.992,0.012,7.688,0.012,0c30.173,27.748,59.553,54.767,89.61,82.409C59.268,82.409,29.642,82.5,0,82.5
	c0-17.405-0.325-33.14,0-50.14c4.2,3.222,8.862,5.958,13.692,9.028c8.231,5.231,12.905,11.958,10.865,22.758
	c12.306,1.497,22.498,6.998,30.864,15.964c0.34-0.304,0.681-0.607,1.021-0.911c-1.123-1.649-1.913-3.749-3.428-4.864
	c-5.184-3.817-10.624-7.286-15.963-10.892c-2.075-1.401-4.301-2.638-6.133-4.308c-0.719-0.655-1.044-2.51-0.641-3.414
	c0.396-0.889,1.943-1.265,2.984-1.866C33.431,54.16,33.6,54.464,33.769,54.767z"/>
<path fill="#FFFFFF" d="M111.803,69.37c2.677,0.752,5.353,1.504,7.949,2.234c-3.275,6.185-14.406,5.483-19.532,2.071
	c-2.071-1.378-4.758-2.109-7.264-2.498c-6.345-0.984-13.017-1.599-15.636-8.659c-2.528-6.815,1.512-11.936,5.959-16.369
	c11.831-11.791,26.301-15.175,42.316-11.991c7.862,1.563,10.378,7.249,7.383,14.715c-2.978,7.422-8.608,12.329-15.41,16.099
	c-1.885,1.045-3.783,2.067-5.674,3.1C111.864,68.505,111.834,68.938,111.803,69.37z M99.907,62.804
	c1.285-0.612,4.148-1.249,5.938-2.989c3.24-3.149,6.136-6.766,8.58-10.57c1.176-1.83,0.996-4.531,1.431-6.837
	c-2.683-0.206-5.691-1.297-7.988-0.453c-6.877,2.524-11.027,8.25-14.096,14.591C91.98,60.249,94.239,62.888,99.907,62.804z"/>
<path fill="#FFFFFF" d="M223.75,52.43c5.479-11.117,10.428-21.13,24.809-18.199c-1.56,2.832-3.07,5.679-4.677,8.47
	c-4.412,7.664-9.022,15.218-13.221,22.996c-1.652,3.06-3.676,3.854-7.026,4.217c-6.964,0.754-11.363-1.228-13.142-8.416
	c-0.741-2.993-2.542-5.724-4.396-9.729c-2.883,4.914-5.556,8.892-7.623,13.163c-1.835,3.791-4.297,5.439-8.532,4.907
	c-2.741-0.345-5.561-0.065-9.824-0.065c6.555-10.563,12.303-20.086,18.378-29.396c1.213-1.859,3.545-3.137,5.587-4.28
	c7.685-4.303,10.825-3.217,14.384,4.693C220.002,44.205,221.561,47.61,223.75,52.43z"/>
<path fill="#FFFFFF" d="M335.018,34.242c-2.735,11.612-5.296,22.652-8.011,33.654c-0.185,0.751-1.511,1.701-2.339,1.733
	c-4.388,0.172-8.786,0.081-13.334,0.081c0-2.039,0-3.571,0-5.877c-7.21,0.902-15.045-3.382-21.288,4.304
	c-1.193,1.469-4.579,1.353-6.99,1.584c-2.629,0.252-5.301,0.057-8.757,0.057c0.999-1.402,1.41-2.197,2.016-2.795
	c7.988-7.886,15.899-15.854,24.04-23.579C309.918,34.329,321.449,32.046,335.018,34.242z M303.29,54.354
	c10.814,2.109,13.582-0.521,12.939-11.991C311.761,46.504,307.861,50.118,303.29,54.354z"/>
<path fill="#FFFFFF" d="M184.728,34.205c-2.046,8.914-3.774,17.542-6.037,26.027c-3.034,11.377,0.254,9.306-12.031,9.528
	c-1.724,0.031-3.449,0.004-5.456,0.004c0-1.94,0-3.586,0-5.964c-5.442,0-10.728-0.042-16.013,0.052
	c-0.676,0.012-1.591,0.566-1.971,1.146c-4.8,7.332-11.898,4.185-19.282,4.764c1.214-1.574,1.68-2.343,2.3-2.956
	c7.871-7.781,15.656-15.652,23.679-23.273C159.592,34.343,171.243,32.041,184.728,34.205z M153.238,54.246
	c10.333,2.657,13.956-0.762,12.447-11.73C161.387,46.567,157.496,50.234,153.238,54.246z"/>
<path fill="#FFFFFF" d="M383.556,35.633c-2.964,4.909-6.679,6.485-11.216,6.337c-2.838-0.093-5.668-0.65-8.499-0.632
	c-1.559,0.01-3.114,0.778-4.671,1.204c-0.037,0.44-0.075,0.88-0.112,1.32c1.442,0.649,2.86,1.359,4.331,1.935
	c3.669,1.435,7.547,2.46,11.003,4.287c5.602,2.962,6.603,8.059,1.987,12.388c-3.096,2.904-7.208,5.296-11.282,6.475
	c-9.755,2.823-19.701,2.266-29.44-0.665c-1.889-0.569-3.632-1.623-5.776-2.607c1.027-0.943,1.658-1.42,2.165-2.005
	c3.635-4.183,7.485-5.475,13.16-3.228c4.719,1.868,10.247,3.133,16.29-0.824c-2.258-1.115-3.655-1.911-5.132-2.512
	c-3.214-1.306-6.592-2.264-9.681-3.809c-7.768-3.884-8.063-11.163-0.587-15.739c7.918-4.847,16.75-5.347,25.681-4.388
	C375.506,33.569,379.155,34.687,383.556,35.633z"/>
<path fill="#FFFFFF" d="M299.779,33.905c-3.362,6.705-8.582,8.987-14.702,8.904c-4.101-0.056-6.254,1.507-8.079,4.966
	c-3.311,6.275-7.188,12.25-10.566,18.493c-1.382,2.554-3.003,3.704-5.937,3.54c-3.857-0.215-7.735-0.053-12.693-0.053
	c5.324-9.233,10.079-17.478,15.36-26.637c-5.549,0-10.136,0-15.248,0c2.36-6.39,6.962-8.919,12.287-9.084
	C273.099,33.635,286.017,33.905,299.779,33.905z"/>
</svg>
