<?xml version="1.0" encoding="utf-8"?>
<!-- Generator: Adobe Illustrator 17.0.0, SVG Export Plug-In . SVG Version: 6.00 Build 0)  -->
<!DOCTYPE svg PUBLIC "-//W3C//DTD SVG 1.1//EN" "http://www.w3.org/Graphics/SVG/1.1/DTD/svg11.dtd">
<svg version="1.1" id="Layer_1" xmlns="http://www.w3.org/2000/svg" xmlns:xlink="http://www.w3.org/1999/xlink" x="0px" y="0px"
	 width="89.244px" height="82.5px" viewBox="0 0 89.244 82.5" enable-background="new 0 0 89.244 82.5" xml:space="preserve">
<path fill="#FFFFFF" d="M33.845,54.657c-0.676,0.33-1.351,0.659-2.826,1.379c8.565,2.322,11.434-7.725,18.796-6.036
	c0.013-0.608,0.026-1.216,0.04-1.825c-3.639-1.564-7.28-3.127-10.919-4.691c-0.218,0.371-0.437,0.744-0.655,1.115
	c0.833,0.98,1.665,1.958,2.498,2.938c-0.125,0.408-0.25,0.817-0.376,1.225c-1.239-0.349-2.993-0.292-3.637-1.11
	c-6.136-7.789-14.544-11.877-23.587-15.068c-2.519-0.888-4.986-1.974-7.371-3.179c-3.701-1.869-5.609-4.995-5.64-9.151
	C0.122,13.964,0.156,7.672,0.156,0c30.112,27.692,59.433,54.656,89.429,82.243c-30.293,0-59.859,0.091-89.441,0.091
	c0-17.37-0.325-33.073,0-50.038c4.191,3.216,8.844,5.946,13.665,9.01c8.215,5.221,12.878,11.933,10.843,22.711
	C36.933,65.51,47.105,71,55.454,79.949c0.34-0.303,0.68-0.606,1.019-0.909c-1.121-1.645-1.909-3.741-3.421-4.855
	c-5.174-3.809-10.602-7.271-15.931-10.87c-2.07-1.399-4.292-2.634-6.121-4.299c-0.718-0.654-1.042-2.504-0.64-3.407
	c0.395-0.887,1.939-1.262,2.978-1.863C33.508,54.05,33.677,54.353,33.845,54.657z"/>
</svg>
