<?xml version="1.0" encoding="utf-8"?>
<!-- Generator: Adobe Illustrator 16.0.0, SVG Export Plug-In . SVG Version: 6.00 Build 0)  -->
<!DOCTYPE svg PUBLIC "-//W3C//DTD SVG 1.1//EN" "http://www.w3.org/Graphics/SVG/1.1/DTD/svg11.dtd">
<svg version="1.1" id="Layer_1" xmlns="http://www.w3.org/2000/svg" xmlns:xlink="http://www.w3.org/1999/xlink" x="0px" y="0px"
	 width="40px" height="40px" viewBox="0 0 40 40" enable-background="new 0 0 40 40" xml:space="preserve">
<circle fill="#202328" stroke="#A1A1A1" stroke-width="3" stroke-miterlimit="10" cx="20" cy="20" r="18.099"/>
<path fill="#A1A1A1" d="M20.029,11.67c-3.193,0-5.935,2.578-5.935,5.824v3.063c0,2.602,1.694,4.796,4.005,5.592l0.004,0.008
	l1.967,2.173l2.054-2.258c2.195-0.856,3.779-2.998,3.779-5.515v-3.063C25.904,14.31,23.162,11.67,20.029,11.67z M23.042,20.558
	c0,1.607-1.416,3.033-3.013,3.033c-1.657,0-3.073-1.365-3.073-3.033v-3.063c0-1.638,1.476-2.942,3.073-2.942
	c1.566,0,3.013,1.334,3.013,2.942V20.558z"/>
</svg>
