<?xml version="1.0" encoding="utf-8"?>
<!-- Generator: Adobe Illustrator 16.2.1, SVG Export Plug-In . SVG Version: 6.00 Build 0)  -->
<!DOCTYPE svg PUBLIC "-//W3C//DTD SVG 1.1//EN" "http://www.w3.org/Graphics/SVG/1.1/DTD/svg11.dtd">
<svg version="1.1" id="Layer_1" xmlns="http://www.w3.org/2000/svg" xmlns:xlink="http://www.w3.org/1999/xlink" x="0px" y="0px"
	 width="100px" height="100px" viewBox="0 0 100 100" enable-background="new 0 0 100 100" xml:space="preserve">
<path fill="#B72706" d="M51.438,0C23.834-0.794,0.814,20.939,0.021,48.542C0.007,49.028,0,49.514,0,50c0,27.614,22.386,50,50,50
	s50-22.386,50-50C100.012,22.938,78.488,0.778,51.438,0z M69.807,62.991c3.209,3.219-1.769,8.197-4.981,4.981
	c-4.497-4.496-8.994-8.995-13.49-13.493c-4.498,4.498-8.995,8.996-13.491,13.493c-3.212,3.216-8.192-1.769-4.979-4.981
	c4.496-4.497,8.994-8.995,13.491-13.492c-4.497-4.498-8.993-8.996-13.491-13.493c-3.212-3.216,1.763-8.191,4.979-4.979
	c4.497,4.497,8.994,8.994,13.491,13.492c4.497-4.498,8.993-8.995,13.49-13.492c3.213-3.212,8.19,1.763,4.981,4.979
	c-4.496,4.499-8.994,8.996-13.491,13.493C60.812,53.997,65.309,58.496,69.807,62.991z"/>
</svg>
