<?xml version="1.0" encoding="UTF-8" standalone="no"?>
<!-- Generator: Adobe Illustrator 16.2.1, SVG Export Plug-In . SVG Version: 6.00 Build 0)  -->

<svg
   xmlns:dc="http://purl.org/dc/elements/1.1/"
   xmlns:cc="http://creativecommons.org/ns#"
   xmlns:rdf="http://www.w3.org/1999/02/22-rdf-syntax-ns#"
   xmlns:svg="http://www.w3.org/2000/svg"
   xmlns="http://www.w3.org/2000/svg"
   xmlns:sodipodi="http://sodipodi.sourceforge.net/DTD/sodipodi-0.dtd"
   xmlns:inkscape="http://www.inkscape.org/namespaces/inkscape"
   version="1.1"
   id="Layer_1"
   x="0px"
   y="0px"
   width="64"
   height="50"
   viewBox="0 0 64 50"
   enable-background="new 0 0 64 64"
   xml:space="preserve"
   inkscape:version="0.48.2 r9819"
   sodipodi:docname="uploadcloud.svg"><metadata
   id="metadata25"><rdf:RDF><cc:Work
       rdf:about=""><dc:format>image/svg+xml</dc:format><dc:type
         rdf:resource="http://purl.org/dc/dcmitype/StillImage" /></cc:Work></rdf:RDF></metadata><defs
   id="defs23" /><sodipodi:namedview
   pagecolor="#ffffff"
   bordercolor="#666666"
   borderopacity="1"
   objecttolerance="10"
   gridtolerance="10"
   guidetolerance="10"
   inkscape:pageopacity="0"
   inkscape:pageshadow="2"
   inkscape:window-width="1318"
   inkscape:window-height="855"
   id="namedview21"
   showgrid="false"
   inkscape:zoom="3.6875"
   inkscape:cx="32"
   inkscape:cy="32"
   inkscape:window-x="139"
   inkscape:window-y="44"
   inkscape:window-maximized="0"
   inkscape:current-layer="Layer_1" />
<g
   id="g3"
   transform="translate(0,-14)">
	<g
   id="g5">
		<path
   d="m 49.238,22.653 c -2.301,0 -4.525,0.574 -6.5,1.653 -2.405,-5.068 -7.588,-8.48 -13.393,-8.48 -7.922,0 -14.412,6.252 -14.795,14.08 -3.638,0.434 -6.757,2.848 -8.106,6.22 -3.023,0.757 -5.269,3.495 -5.269,6.749 0,3.835 3.121,6.955 6.956,6.955 H 28.46 c 0,-3.646 0,-7.294 0,-10.939 -0.854,0 -2.518,0 -3.371,0 -0.652,0 -0.872,-0.744 -0.495,-1.195 2.034,-2.443 4.878,-4.887 6.911,-7.328 0.149,-0.18 0.326,-0.245 0.496,-0.233 0.169,-0.011 0.347,0.053 0.496,0.233 2.032,2.441 4.877,4.885 6.911,7.328 0.376,0.451 0.158,1.195 -0.495,1.195 -0.854,0 -2.519,0 -3.371,0 0,3.646 0,7.293 0,10.939 h 13.696 c 7.494,0 13.589,-6.096 13.589,-13.589 C 62.825,28.749 56.73,22.653 49.238,22.653 z"
   id="path7"
   inkscape:connector-curvature="0"
   style="fill:#202328" />
	</g>
	<defs
   id="defs9">
		<filter
   id="Adobe_OpacityMaskFilter"
   filterUnits="userSpaceOnUse"
   x="1.175"
   y="15.826"
   width="61.652"
   height="34.004002"
   color-interpolation-filters="sRGB">
			<feColorMatrix
   type="matrix"
   values="1 0 0 0 0  0 1 0 0 0  0 0 1 0 0  0 0 0 1 0"
   id="feColorMatrix12" />
		</filter>
	</defs>
	<mask
   maskUnits="userSpaceOnUse"
   x="1.175"
   y="15.826"
   width="61.652"
   height="34.004"
   id="SVGID_2_">
		<g
   id="g15"
   style="filter:url(#Adobe_OpacityMaskFilter)">
		</g>
	</mask>
	<g
   mask="url(#SVGID_2_)"
   id="g17"
   style="opacity:0.81000001">
		<path
   d="m 49.238,22.653 c -2.301,0 -4.525,0.574 -6.5,1.653 -2.405,-5.068 -7.588,-8.48 -13.393,-8.48 -7.922,0 -14.412,6.252 -14.795,14.08 -3.638,0.434 -6.757,2.848 -8.106,6.22 -3.023,0.757 -5.269,3.495 -5.269,6.749 0,3.835 3.121,6.955 6.956,6.955 H 28.46 c 0,-3.646 0,-7.294 0,-10.939 -0.854,0 -2.518,0 -3.371,0 -0.652,0 -0.872,-0.744 -0.495,-1.195 2.034,-2.443 4.878,-4.887 6.911,-7.328 0.149,-0.18 0.326,-0.245 0.496,-0.233 0.169,-0.011 0.347,0.053 0.496,0.233 2.032,2.441 4.877,4.885 6.911,7.328 0.376,0.451 0.158,1.195 -0.495,1.195 -0.854,0 -2.519,0 -3.371,0 0,3.646 0,7.293 0,10.939 h 13.696 c 7.494,0 13.589,-6.096 13.589,-13.589 C 62.825,28.749 56.73,22.653 49.238,22.653 z"
   id="path19"
   inkscape:connector-curvature="0"
   style="fill:#202328" />
	</g>
</g>
</svg>