<?xml version="1.0" encoding="utf-8"?>
<!-- Generator: Adobe Illustrator 16.0.0, SVG Export Plug-In . SVG Version: 6.00 Build 0)  -->
<!DOCTYPE svg PUBLIC "-//W3C//DTD SVG 1.1//EN" "http://www.w3.org/Graphics/SVG/1.1/DTD/svg11.dtd">
<svg version="1.1" id="Layer_1" xmlns="http://www.w3.org/2000/svg" xmlns:xlink="http://www.w3.org/1999/xlink" x="0px" y="0px"
	 width="32px" height="32px" viewBox="0 0 32 32" enable-background="new 0 0 32 32" xml:space="preserve">
<g>
	<path fill="#FFFFFF" d="M3.2,4.926h3.142v5.161h2.952v2.537H6.341v12.065c0,0.646,0.219,1.076,0.656,1.295
		c0.242,0.127,0.645,0.191,1.208,0.191c0.15,0,0.311-0.004,0.483-0.012c0.173-0.008,0.374-0.027,0.604-0.057v2.467
		c-0.356,0.104-0.728,0.178-1.113,0.225c-0.386,0.045-0.803,0.07-1.252,0.07c-1.45,0-2.434-0.373-2.952-1.113
		C3.459,27.014,3.2,26.049,3.2,24.863V12.625H0.697v-2.537H3.2V4.926z"/>
	<path fill="#FFFFFF" d="M31.303,3.131v4.505h-7.613v20.938h-5.351V7.636h-7.647V3.131H31.303z"/>
</g>
</svg>
