<?xml version="1.0" encoding="utf-8"?>
<!-- Generator: Adobe Illustrator 16.2.1, SVG Export Plug-In . SVG Version: 6.00 Build 0)  -->
<!DOCTYPE svg PUBLIC "-//W3C//DTD SVG 1.1//EN" "http://www.w3.org/Graphics/SVG/1.1/DTD/svg11.dtd">
<svg version="1.1" id="Layer_1" xmlns="http://www.w3.org/2000/svg" xmlns:xlink="http://www.w3.org/1999/xlink" x="0px" y="0px"
	 width="32px" height="32px" viewBox="0 0 32 32" enable-background="new 0 0 32 32" xml:space="preserve">
<circle fill="none" stroke="#CCCCCC" stroke-miterlimit="10" cx="16.333" cy="15.5" r="14"/>
<g>
	<path fill="#CCCCCC" d="M11.337,11.849c2.883,2.883,5.765,5.767,8.647,8.649c0.87,0.87,2.216-0.477,1.348-1.348
		c-2.883-2.881-5.766-5.765-8.648-8.648C11.814,9.633,10.468,10.979,11.337,11.849L11.337,11.849z"/>
	<path fill="#CCCCCC" d="M19.984,10.502c-2.883,2.883-5.765,5.766-8.647,8.648c-0.869,0.87,0.478,2.218,1.347,1.348
		c2.883-2.883,5.766-5.765,8.648-8.649C22.2,10.979,20.854,9.633,19.984,10.502L19.984,10.502z"/>
</g>
</svg>
