<?xml version="1.0" encoding="utf-8"?>
<!-- Generator: Adobe Illustrator 16.2.1, SVG Export Plug-In . SVG Version: 6.00 Build 0)  -->
<!DOCTYPE svg PUBLIC "-//W3C//DTD SVG 1.1//EN" "http://www.w3.org/Graphics/SVG/1.1/DTD/svg11.dtd">
<svg version="1.1" id="Layer_1" xmlns="http://www.w3.org/2000/svg" xmlns:xlink="http://www.w3.org/1999/xlink" x="0px" y="0px"
	 width="50px" height="50px" viewBox="0 0 50 50" enable-background="new 0 0 50 50" xml:space="preserve">
<circle fill="none" stroke="#000000" stroke-width="4" stroke-miterlimit="10" cx="25.296" cy="24.553" r="22.212"/>
<path d="M31.276,27.048c-0.896-1.029-1.955-0.814-3.175-1.947c-0.605-0.563-0.548-4.063-0.548-4.063s-0.046-3.036,0.577-3.658
	c0.429-0.429,1.185-0.54,1.623-0.972c0.005-0.003,0.007-0.005,0.011-0.01c0.095-0.095,0.172-0.207,0.229-0.339
	c0.008-0.014,0.016-0.025,0.02-0.039c0.039-0.101,0.06-0.22,0.071-0.348c0.002-0.033,0.019-0.06,0.019-0.093
	c0-0.005-0.004-0.01-0.004-0.017c0-0.009,0.004-0.016,0.004-0.024c0-0.022-0.017-0.033-0.019-0.053
	c-0.051-0.598-0.538-1.073-1.148-1.073h-7.308c-0.611,0-1.098,0.475-1.148,1.073c-0.002,0.02-0.019,0.03-0.019,0.053
	c0,0.009,0.003,0.016,0.004,0.024c-0.001,0.006-0.004,0.011-0.004,0.017c0,0.033,0.016,0.061,0.019,0.093
	c0.011,0.128,0.031,0.247,0.07,0.348c0.005,0.013,0.013,0.024,0.02,0.039c0.056,0.132,0.134,0.245,0.229,0.339
	c0.003,0.004,0.006,0.007,0.01,0.01c0.44,0.432,1.194,0.542,1.625,0.972c0.622,0.622,0.576,3.658,0.576,3.658s0.058,3.5-0.548,4.063
	c-1.22,1.133-2.278,0.918-3.174,1.947c-0.634,0.729-0.518,2.028-0.518,2.028h6.01v5.295l0.45,3.217h0.107l0.451-3.217v-5.295h6.007
	C31.793,29.076,31.909,27.776,31.276,27.048z"/>
</svg>
