<?xml version="1.0" encoding="utf-8"?>
<!-- Generator: Adobe Illustrator 16.2.1, SVG Export Plug-In . SVG Version: 6.00 Build 0)  -->
<!DOCTYPE svg PUBLIC "-//W3C//DTD SVG 1.1//EN" "http://www.w3.org/Graphics/SVG/1.1/DTD/svg11.dtd">
<svg version="1.1" id="Layer_1" xmlns="http://www.w3.org/2000/svg" xmlns:xlink="http://www.w3.org/1999/xlink" x="0px" y="0px"
	 width="50px" height="50px" viewBox="0 0 50 50" enable-background="new 0 0 50 50" xml:space="preserve">
<circle fill="none" stroke="#B2B1B8" stroke-width="4" stroke-miterlimit="10" cx="25.296" cy="24.553" r="22.212"/>
<path fill="#B2B1B8" d="M31.793,21.924h-6.007v-5.295l-0.451-3.217h-0.107l-0.45,3.217v5.295h-6.01c0,0-0.116,1.3,0.518,2.028
	c0.896,1.029,1.954,0.814,3.174,1.946c0.605,0.563,0.548,4.063,0.548,4.063s0.045,3.036-0.576,3.658
	c-0.43,0.429-1.185,0.539-1.625,0.971c-0.004,0.005-0.007,0.007-0.01,0.011c-0.095,0.096-0.172,0.207-0.229,0.34
	c-0.007,0.014-0.015,0.024-0.02,0.039c-0.039,0.101-0.06,0.22-0.07,0.348c-0.003,0.033-0.019,0.061-0.019,0.094
	c0,0.005,0.003,0.01,0.004,0.016c-0.001,0.011-0.004,0.017-0.004,0.025c0,0.021,0.017,0.032,0.019,0.053
	c0.05,0.599,0.537,1.072,1.148,1.072h7.308c0.61,0,1.099-0.475,1.148-1.072c0.002-0.021,0.02-0.031,0.02-0.053
	c0-0.01-0.004-0.016-0.004-0.025c0-0.006,0.004-0.011,0.004-0.016c0-0.033-0.018-0.061-0.02-0.094
	c-0.012-0.128-0.032-0.247-0.071-0.348c-0.004-0.015-0.012-0.025-0.02-0.039c-0.058-0.133-0.134-0.244-0.229-0.34
	c-0.004-0.004-0.006-0.006-0.011-0.011c-0.438-0.432-1.194-0.542-1.623-0.971c-0.623-0.622-0.577-3.658-0.577-3.658
	s-0.058-3.5,0.549-4.063c1.219-1.132,2.277-0.917,3.174-1.946C31.909,23.224,31.793,21.924,31.793,21.924z"/>
</svg>
